<svg xmlns="http://www.w3.org/2000/svg" viewBox="0 0 800 560">
  <rect width="800" height="560" fill="#f0e0cb"/>
  <rect x="220" y="240" width="110" height="180" rx="18" fill="#f7f1e8"/>
  <rect x="350" y="212" width="110" height="208" rx="18" fill="#e8ded0"/>
  <rect x="480" y="256" width="110" height="164" rx="18" fill="#f7f1e8"/>
  <path d="M276 216c0-20 22-28 22-47 20 18 17 33 8 48-5 9-10 15-15 15s-15-7-15-16z" fill="#d7a35f"/>
  <path d="M406 186c0-20 22-28 22-47 20 18 17 33 8 48-5 9-10 15-15 15s-15-7-15-16z" fill="#d7a35f"/>
  <path d="M536 232c0-20 22-28 22-47 20 18 17 33 8 48-5 9-10 15-15 15s-15-7-15-16z" fill="#d7a35f"/>
</svg>
