<svg xmlns="http://www.w3.org/2000/svg" viewBox="0 0 800 560">
  <rect width="800" height="560" fill="#ead9c7"/>
  <circle cx="185" cy="116" r="84" fill="#f8f2ea" opacity=".7"/>
  <rect x="260" y="270" width="280" height="110" rx="26" fill="#f8f2ea"/>
  <path d="M260 292c44-22 80-34 140-34 62 0 106 13 140 34v24H260z" fill="#d5a16b"/>
  <path d="M334 235c0-18 20-26 20-43 19 16 16 30 8 44-4 7-9 13-14 13s-14-6-14-14z" fill="#de9d54"/>
  <path d="M392 221c0-18 20-26 20-43 19 16 16 30 8 44-4 7-9 13-14 13s-14-6-14-14z" fill="#de9d54"/>
  <path d="M450 235c0-18 20-26 20-43 19 16 16 30 8 44-4 7-9 13-14 13s-14-6-14-14z" fill="#de9d54"/>
</svg>
